HIERARCHY
ROOT newVegas:Hips
{
	OFFSET 0.000000 96.479958 0.000000
	CHANNELS 6 Xposition Yposition Zposition Xrotation Yrotation Zrotation
	JOINT newVegas:Pelvis
	{
		OFFSET 0.000000 0.000000 0.000000
		CHANNELS 3 Xrotation Yrotation Zrotation
		JOINT newVegas:LeftUpLeg
		{
			OFFSET 18.735201 -5.666702 -4.541200
			CHANNELS 3 Xrotation Yrotation Zrotation
			JOINT newVegas:LeftLeg
			{
				OFFSET -0.021200 -31.938179 0.493100
				CHANNELS 3 Xrotation Yrotation Zrotation
				JOINT newVegas:LeftFoot
				{
					OFFSET 0.021200 -31.938179 -4.336299
					CHANNELS 3 Xrotation Yrotation Zrotation
					JOINT newVegas:LeftToeBase
					{
						OFFSET 0.943001 -26.722000 15.023500
						CHANNELS 3 Xrotation Yrotation Zrotation
						End Site
						{
							OFFSET 0.000000 30.670183 0.000000
						}
					}
				}
				JOINT newVegas:Left_PantLeg
				{
					OFFSET 0.663870 -9.044666 -1.108900
					CHANNELS 3 Xrotation Yrotation Zrotation
					End Site
					{
						OFFSET 1.415995 20.635357 0.000000
					}
				}
			}
		}
		JOINT newVegas:RightUpLeg
		{
			OFFSET -18.735201 -5.666702 -4.541200
			CHANNELS 3 Xrotation Yrotation Zrotation
			JOINT newVegas:RightLeg
			{
				OFFSET 0.018946 -31.938133 0.493100
				CHANNELS 3 Xrotation Yrotation Zrotation
				JOINT newVegas:RightFoot
				{
					OFFSET -0.018946 -31.938126 -4.336299
					CHANNELS 3 Xrotation Yrotation Zrotation
					JOINT newVegas:RightToeBase
					{
						OFFSET -0.943001 -26.722004 15.023500
						CHANNELS 3 Xrotation Yrotation Zrotation
						End Site
						{
							OFFSET 0.000000 30.670187 0.000000
						}
					}
				}
				JOINT newVegas:Right_PantLeg
				{
					OFFSET -0.661674 -9.044716 -1.108900
					CHANNELS 3 Xrotation Yrotation Zrotation
					End Site
					{
						OFFSET -1.415958 20.635269 0.000000
					}
				}
			}
		}
	}
	JOINT newVegas:Spine
	{
		OFFSET 0.000000 10.199997 -0.299500
		CHANNELS 3 Xrotation Yrotation Zrotation
		JOINT newVegas:Spine1
		{
			OFFSET 0.000000 11.900002 -1.516600
			CHANNELS 3 Xrotation Yrotation Zrotation
			JOINT newVegas:Spine2
			{
				OFFSET 0.000000 13.600006 -2.842500
				CHANNELS 3 Xrotation Yrotation Zrotation
				JOINT newVegas:Neck
				{
					OFFSET 0.000000 9.624100 -2.890100
					CHANNELS 3 Xrotation Yrotation Zrotation
					JOINT newVegas:Head
					{
						OFFSET 0.000000 14.068802 -1.351900
						CHANNELS 3 Xrotation Yrotation Zrotation
						JOINT newVegas:Hair_Back
						{
							OFFSET 0.000000 3.231903 -17.524799
							CHANNELS 3 Xrotation Yrotation Zrotation
							End Site
							{
								OFFSET 0.000000 19.849884 0.000000
							}
						}
						JOINT newVegas:Hair_Front
						{
							OFFSET 0.000000 31.260406 4.573800
							CHANNELS 3 Xrotation Yrotation Zrotation
							JOINT newVegas:Hair_Front1
							{
								OFFSET 0.000000 2.284103 11.993300
								CHANNELS 3 Xrotation Yrotation Zrotation
								JOINT newVegas:Hair_Front2
								{
									OFFSET 0.000000 2.284103 11.993300
									CHANNELS 3 Xrotation Yrotation Zrotation
									End Site
									{
										OFFSET 0.000000 12.208862 0.000000
									}
								}
							}
						}
						JOINT newVegas:Jowel
						{
							OFFSET 0.000000 -7.458206 6.864100
							CHANNELS 3 Xrotation Yrotation Zrotation
							End Site
							{
								OFFSET 0.000000 19.849884 0.000000
							}
						}
					}
				}
				JOINT newVegas:LeftShoulder
				{
					OFFSET 15.263000 10.923401 -0.547700
					CHANNELS 3 Xrotation Yrotation Zrotation
					JOINT newVegas:LeftArm
					{
						OFFSET 25.438599 -2.830597 -13.032500
						CHANNELS 3 Xrotation Yrotation Zrotation
						JOINT newVegas:LeftForeArm
						{
							OFFSET 29.960503 0.000000 0.000000
							CHANNELS 3 Xrotation Yrotation Zrotation
							JOINT newVegas:LeftHand
							{
								OFFSET 27.849251 0.000000 0.000000
								CHANNELS 3 Xrotation Yrotation Zrotation
								JOINT newVegas:LeftHandThumb1
								{
									OFFSET 4.487587 -3.305161 6.305391
									CHANNELS 3 Xrotation Yrotation Zrotation
									JOINT newVegas:LeftHandThumb2
									{
										OFFSET 5.480453 -3.164139 3.164143
										CHANNELS 3 Xrotation Yrotation Zrotation
										JOINT newVegas:LeftHandThumb3
										{
											OFFSET 5.159721 -2.978973 2.978967
											CHANNELS 3 Xrotation Yrotation Zrotation
											End Site
											{
												OFFSET 2.494507 5.926697 1.738678
											}
										}
									}
								}
								JOINT newVegas:LeftHandIndex1
								{
									OFFSET 18.578728 -0.527832 5.208049
									CHANNELS 3 Xrotation Yrotation Zrotation
									JOINT newVegas:LeftHandIndex2
									{
										OFFSET 3.192009 0.000000 0.000000
										CHANNELS 3 Xrotation Yrotation Zrotation
										JOINT newVegas:LeftHandIndex3
										{
											OFFSET 3.835129 0.000000 0.000000
											CHANNELS 3 Xrotation Yrotation Zrotation
											End Site
											{
												OFFSET -0.034599 3.816971 0.371180
											}
										}
									}
								}
								JOINT newVegas:LeftHandMiddle1
								{
									OFFSET 18.476105 0.000000 0.000000
									CHANNELS 3 Xrotation Yrotation Zrotation
									JOINT newVegas:LeftHandMiddle2
									{
										OFFSET 3.324875 0.000000 0.000000
										CHANNELS 3 Xrotation Yrotation Zrotation
										JOINT newVegas:LeftHandMiddle3
										{
											OFFSET 4.596550 0.000000 0.000000
											CHANNELS 3 Xrotation Yrotation Zrotation
											End Site
											{
												OFFSET 0.057701 4.578827 0.399218
											}
										}
									}
								}
								JOINT newVegas:LeftHandRing1
								{
									OFFSET 17.732719 0.121887 -4.201567
									CHANNELS 3 Xrotation Yrotation Zrotation
									JOINT newVegas:LeftHandRing2
									{
										OFFSET 2.733170 0.000000 0.000000
										CHANNELS 3 Xrotation Yrotation Zrotation
										JOINT newVegas:LeftHandRing3
										{
											OFFSET 3.178268 0.000000 0.000000
											CHANNELS 3 Xrotation Yrotation Zrotation
											End Site
											{
												OFFSET 0.119102 3.170624 0.185394
											}
										}
									}
								}
								JOINT newVegas:LeftHandPinky1
								{
									OFFSET 15.989624 -0.606689 -7.535461
									CHANNELS 3 Xrotation Yrotation Zrotation
									JOINT newVegas:LeftHandPinky2
									{
										OFFSET 2.538986 0.000000 0.000000
										CHANNELS 3 Xrotation Yrotation Zrotation
										JOINT newVegas:LeftHandPinky3
										{
											OFFSET 2.593102 0.000000 0.000000
											CHANNELS 3 Xrotation Yrotation Zrotation
											End Site
											{
												OFFSET -0.150902 2.584198 0.152708
											}
										}
									}
								}
							}
							JOINT newVegas:Left_Sleeve
							{
								OFFSET 0.267448 -0.649796 0.577675
								CHANNELS 3 Xrotation Yrotation Zrotation
								End Site
								{
									OFFSET 0.000000 15.991241 0.000000
								}
							}
							JOINT newVegas:Left_CapeC
							{
								OFFSET 15.715958 -8.608795 -6.935905
								CHANNELS 3 Xrotation Yrotation Zrotation
								JOINT newVegas:Left_CapeC1
								{
									OFFSET 0.000000 -8.688499 0.000000
									CHANNELS 3 Xrotation Yrotation Zrotation
									End Site
									{
										OFFSET 0.000000 8.688499 0.000000
									}
								}
							}
						}
						JOINT newVegas:Left_CapeB
						{
							OFFSET 26.118385 -8.608795 -7.079235
							CHANNELS 3 Xrotation Yrotation Zrotation
							JOINT newVegas:Left_CapeB1
							{
								OFFSET 0.000000 -8.688499 0.000000
								CHANNELS 3 Xrotation Yrotation Zrotation
								End Site
								{
									OFFSET 0.000000 8.688499 0.000000
								}
							}
						}
						JOINT newVegas:Left_CapeA
						{
							OFFSET 5.115639 -8.608795 -10.395809
							CHANNELS 3 Xrotation Yrotation Zrotation
							JOINT newVegas:Left_CapeA1
							{
								OFFSET 0.000000 -8.688499 0.000000
								CHANNELS 3 Xrotation Yrotation Zrotation
								End Site
								{
									OFFSET 0.000000 8.688499 0.000000
								}
							}
						}
					}
				}
				JOINT newVegas:RightShoulder
				{
					OFFSET -15.263000 10.923401 -0.547700
					CHANNELS 3 Xrotation Yrotation Zrotation
					JOINT newVegas:RightArm
					{
						OFFSET -25.438599 -2.830597 -13.032500
						CHANNELS 3 Xrotation Yrotation Zrotation
						JOINT newVegas:RightForeArm
						{
							OFFSET -29.960503 0.000000 0.000000
							CHANNELS 3 Xrotation Yrotation Zrotation
							JOINT newVegas:RightHand
							{
								OFFSET -27.849251 0.000000 0.000000
								CHANNELS 3 Xrotation Yrotation Zrotation
								JOINT newVegas:RightHandThumb1
								{
									OFFSET -4.487587 -3.305161 6.305391
									CHANNELS 3 Xrotation Yrotation Zrotation
									JOINT newVegas:RightHandThumb2
									{
										OFFSET -5.480453 -3.164139 3.164143
										CHANNELS 3 Xrotation Yrotation Zrotation
										JOINT newVegas:RightHandThumb3
										{
											OFFSET -5.159721 -2.978973 2.978967
											CHANNELS 3 Xrotation Yrotation Zrotation
											End Site
											{
												OFFSET -2.494507 5.926697 1.738678
											}
										}
									}
								}
								JOINT newVegas:RightHandIndex1
								{
									OFFSET -18.578728 -0.527832 5.208049
									CHANNELS 3 Xrotation Yrotation Zrotation
									JOINT newVegas:RightHandIndex2
									{
										OFFSET -3.192009 0.000000 0.000000
										CHANNELS 3 Xrotation Yrotation Zrotation
										JOINT newVegas:RightHandIndex3
										{
											OFFSET -3.835129 0.000000 0.000000
											CHANNELS 3 Xrotation Yrotation Zrotation
											End Site
											{
												OFFSET 0.034599 3.816971 0.371180
											}
										}
									}
								}
								JOINT newVegas:RightHandMiddle1
								{
									OFFSET -18.476105 0.000000 0.000000
									CHANNELS 3 Xrotation Yrotation Zrotation
									JOINT newVegas:RightHandMiddle2
									{
										OFFSET -3.324875 0.000000 0.000000
										CHANNELS 3 Xrotation Yrotation Zrotation
										JOINT newVegas:RightHandMiddle3
										{
											OFFSET -4.596550 0.000000 0.000000
											CHANNELS 3 Xrotation Yrotation Zrotation
											End Site
											{
												OFFSET -0.057701 4.578827 0.399218
											}
										}
									}
								}
								JOINT newVegas:RightHandRing1
								{
									OFFSET -17.732719 0.121887 -4.201567
									CHANNELS 3 Xrotation Yrotation Zrotation
									JOINT newVegas:RightHandRing2
									{
										OFFSET -2.733170 0.000000 0.000000
										CHANNELS 3 Xrotation Yrotation Zrotation
										JOINT newVegas:RightHandRing3
										{
											OFFSET -3.178268 0.000000 0.000000
											CHANNELS 3 Xrotation Yrotation Zrotation
											End Site
											{
												OFFSET -0.119102 3.170624 0.185394
											}
										}
									}
								}
								JOINT newVegas:RightHandPinky1
								{
									OFFSET -15.989624 -0.606689 -7.535461
									CHANNELS 3 Xrotation Yrotation Zrotation
									JOINT newVegas:RightHandPinky2
									{
										OFFSET -2.538986 0.000000 0.000000
										CHANNELS 3 Xrotation Yrotation Zrotation
										JOINT newVegas:RightHandPinky3
										{
											OFFSET -2.593102 0.000000 0.000000
											CHANNELS 3 Xrotation Yrotation Zrotation
											End Site
											{
												OFFSET 0.150902 2.584198 0.152708
											}
										}
									}
								}
							}
							JOINT newVegas:Right_CapeC
							{
								OFFSET -15.715958 -8.608795 -6.935905
								CHANNELS 3 Xrotation Yrotation Zrotation
								JOINT newVegas:Right_CapeC1
								{
									OFFSET 0.000000 -8.688499 0.000000
									CHANNELS 3 Xrotation Yrotation Zrotation
									End Site
									{
										OFFSET 0.000000 8.688499 0.000000
									}
								}
							}
							JOINT newVegas:Right_Sleeve
							{
								OFFSET -0.267448 -0.649994 0.577675
								CHANNELS 3 Xrotation Yrotation Zrotation
								End Site
								{
									OFFSET 0.000000 15.991302 0.000000
								}
							}
						}
						JOINT newVegas:Right_CapeA
						{
							OFFSET -5.115540 -8.608795 -10.395824
							CHANNELS 3 Xrotation Yrotation Zrotation
							JOINT newVegas:Right_CapeA1
							{
								OFFSET 0.000000 -8.688499 0.000000
								CHANNELS 3 Xrotation Yrotation Zrotation
								End Site
								{
									OFFSET 0.000000 8.688499 0.000000
								}
							}
						}
						JOINT newVegas:Right_CapeB
						{
							OFFSET -26.118187 -8.608795 -7.079266
							CHANNELS 3 Xrotation Yrotation Zrotation
							JOINT newVegas:Right_CapeB1
							{
								OFFSET 0.000000 -8.688499 0.000000
								CHANNELS 3 Xrotation Yrotation Zrotation
								End Site
								{
									OFFSET 0.000000 8.688499 0.000000
								}
							}
						}
					}
				}
				JOINT newVegas:Left_Collar
				{
					OFFSET 18.625099 8.655502 8.828100
					CHANNELS 3 Xrotation Yrotation Zrotation
					JOINT newVegas:Left_Collar1
					{
						OFFSET 14.783401 10.540405 -1.259500
						CHANNELS 3 Xrotation Yrotation Zrotation
						End Site
						{
							OFFSET 0.000000 18.199875 0.000000
						}
					}
				}
				JOINT newVegas:Collar_Back
				{
					OFFSET 0.000000 15.630707 -20.132601
					CHANNELS 3 Xrotation Yrotation Zrotation
					End Site
					{
						OFFSET 0.000000 22.523010 0.000000
					}
				}
				JOINT newVegas:Left_Peck
				{
					OFFSET 17.239599 -5.132599 25.482599
					CHANNELS 3 Xrotation Yrotation Zrotation
					End Site
					{
						OFFSET 0.000000 22.523010 0.000000
					}
				}
				JOINT newVegas:Right_Peck
				{
					OFFSET -17.239599 -5.132202 25.482599
					CHANNELS 3 Xrotation Yrotation Zrotation
					End Site
					{
						OFFSET 0.000000 22.523010 0.000000
					}
				}
				JOINT newVegas:Right_Collar
				{
					OFFSET -18.625099 8.655792 8.828100
					CHANNELS 3 Xrotation Yrotation Zrotation
					JOINT newVegas:Right_Collar1
					{
						OFFSET -14.783401 10.539993 -1.259500
						CHANNELS 3 Xrotation Yrotation Zrotation
						End Site
						{
							OFFSET 0.000000 18.199631 0.000000
						}
					}
				}
			}
		}
		JOINT newVegas:Belly
		{
			OFFSET 0.000000 -6.540398 9.014299
			CHANNELS 3 Xrotation Yrotation Zrotation
			End Site
			{
				OFFSET 0.000000 11.566666 0.000000
			}
		}
	}
	JOINT newVegas:ElvisFacialAnim_Joint
	{
		OFFSET 1.000000 -95.330101 -8.825800
		CHANNELS 3 Xrotation Yrotation Zrotation
		End Site
		{
			OFFSET 0.000000 35.315800 0.000000
		}
	}
}
MOTION
Frames: 4
Frame Time: 0.033333
8.082092 18.703407 9.027946 15.306580 -4.476918 61.626495 -0.000000 0.000001 -0.000001 -75.313887 0.870828 12.305225 114.650408 13.955999 7.012109 8.100179 7.292670 -26.899672 0.000002 -0.000000 -0.000003 0.000003 0.000001 0.000003 -102.242201 -35.584521 13.420307 137.692502 -21.965747 4.043633 46.176785 9.416153 -12.390205 -0.000001 0.000000 0.000000 -0.000003 0.000002 -0.000000 4.537693 -11.765907 9.927905 5.356511 -2.783228 -0.810065 7.451995 -2.616397 -0.418913 1.826907 -0.408060 -1.005498 1.826914 -0.408058 -1.005514 0.000000 -0.000000 0.000002 1.826919 -0.408070 -1.005478 1.826887 -0.408017 -1.005501 -0.000002 -0.000003 0.000002 0.000000 -0.000000 0.000001 -3.081744 -45.209377 3.125408 -64.881736 -52.460948 -60.375594 -0.000036 -56.465362 -0.000026 31.496963 23.580547 44.990811 -5.404468 -5.534893 24.668514 7.416515 13.559445 3.779024 0.000003 0.000000 -0.000001 0.366117 -4.238229 1.052566 0.034125 0.632109 -6.180520 0.000000 -0.000001 0.000000 0.088943 -1.422495 0.188386 0.090524 1.026969 -10.074395 0.000000 -0.000001 -0.000000 0.137702 3.731627 -3.489186 0.008749 0.320426 -3.128403 -0.000001 0.000001 -0.000000 0.799481 13.961597 -3.529112 0.007629 0.299213 -2.921095 0.000000 -0.000005 -0.000000 0.000002 -0.000001 -0.000001 0.000002 -0.000001 -0.000001 0.000001 -0.000001 -0.000001 -0.000004 -0.000001 -0.000001 -0.000003 -0.000002 -0.000000 -0.000004 -0.000001 -0.000001 -0.000005 -0.000002 -0.000001 0.094642 21.928479 -0.104482 -56.098048 -53.517329 -5.210288 -0.000002 136.469324 0.000002 37.417914 -28.591875 -18.204440 1.571335 3.499921 -7.678636 7.802581 -15.416791 -4.481854 0.000002 0.000000 -0.000002 0.391987 3.398972 -2.717098 0.541434 -2.181312 27.876825 0.000001 -0.000001 -0.000001 -0.122076 1.242358 2.832482 0.156478 -1.198313 14.878819 -0.000001 0.000000 -0.000002 0.091323 -3.830790 1.615352 0.021557 -0.448118 5.509518 -0.000000 -0.000001 -0.000001 -0.361762 -6.598011 -0.741502 -0.000000 -0.000010 -0.000003 -0.000000 0.000001 0.000002 0.000001 -0.000001 -0.000001 0.000003 0.000000 0.000003 0.000001 -0.000001 0.000001 0.000001 0.000003 -0.000000 0.000001 0.000003 -0.000002 0.000001 0.000003 -0.000000 0.000002 0.000003 -0.000001 0.000000 -0.000002 -0.000003 0.000000 -0.000002 -0.000003 0.000000 -0.000002 -0.000003 0.000000 -0.000002 -0.000003 0.000000 -0.000002 -0.000003 0.000000 -0.000002 -0.000003 0.000000 -0.000002 -0.000003 -0.000000 -0.000001 -0.000002 -0.000000 0.000001 -0.000001 
8.055504 18.713783 9.059141 15.331053 -4.478537 61.598157 -0.000000 -0.000001 0.000001 -75.340163 0.876576 12.315863 114.606435 14.009487 7.032160 8.146551 7.273912 -26.834707 -0.000001 0.000000 -0.000003 -0.000003 -0.000000 -0.000000 -102.092996 -35.559170 13.505214 137.663364 -21.926359 4.040279 46.078922 9.451590 -12.359801 0.000000 -0.000000 0.000000 0.000002 -0.000000 0.000000 4.485006 -11.738509 9.888150 5.367820 -2.785113 -0.797554 7.463064 -2.619001 -0.404413 1.835957 -0.404988 -1.006508 1.835964 -0.404977 -1.006480 0.000001 -0.000003 0.000001 1.835911 -0.404936 -1.006502 1.836050 -0.404992 -1.006486 0.000000 -0.000001 0.000003 0.000001 -0.000003 0.000001 -3.069594 -45.317325 3.159783 -64.817621 -52.473021 -60.356360 -0.000005 -56.370825 0.000016 31.492370 23.610137 45.056337 -5.404468 -5.534895 24.668514 7.416514 13.559446 3.779024 0.000001 0.000002 -0.000004 0.366118 -4.238231 1.052566 0.034125 0.632109 -6.180521 0.000001 -0.000000 0.000001 0.088943 -1.422494 0.188386 0.090523 1.026968 -10.074394 0.000000 -0.000000 -0.000001 0.137701 3.731626 -3.489185 0.008748 0.320424 -3.128400 -0.000000 -0.000001 -0.000000 0.799481 13.961598 -3.529112 0.007629 0.299212 -2.921094 0.000000 -0.000007 0.000000 -0.000002 -0.000001 0.000002 -0.000002 -0.000001 0.000002 -0.000003 -0.000001 0.000002 -0.000001 0.000003 0.000001 -0.000001 0.000002 0.000001 -0.000001 0.000003 0.000001 -0.000002 0.000003 0.000001 0.089723 22.197027 -0.018300 -56.681243 -53.802052 -5.885676 0.000031 136.377690 -0.000045 37.218899 -28.325872 -18.340415 1.571338 3.499923 -7.678635 7.802580 -15.416791 -4.481854 0.000001 -0.000002 -0.000001 0.391989 3.398972 -2.717099 0.541432 -2.181315 27.876823 0.000000 0.000002 0.000001 -0.122074 1.242360 2.832482 0.156478 -1.198314 14.878816 0.000003 -0.000001 -0.000002 0.091325 -3.830791 1.615352 0.021557 -0.448119 5.509517 -0.000000 -0.000003 0.000000 -0.361763 -6.598013 -0.741502 -0.000004 -0.000009 -0.000001 -0.000002 -0.000002 -0.000000 0.000002 0.000001 0.000001 -0.000002 0.000000 0.000001 0.000002 0.000001 0.000003 0.000002 -0.000001 -0.000000 0.000002 0.000000 -0.000000 0.000002 -0.000001 -0.000000 0.000002 -0.000000 0.000001 0.000001 0.000001 -0.000000 0.000001 0.000001 -0.000000 0.000001 0.000001 -0.000000 0.000001 0.000001 -0.000000 0.000001 0.000001 -0.000000 0.000001 0.000001 -0.000000 0.000001 0.000001 -0.000000 0.000001 0.000001 0.000001 -0.000000 -0.000001 0.000001 
8.034019 18.722389 9.079477 15.361275 -4.472312 61.580992 -0.000000 0.000000 0.000000 -75.366978 0.895254 12.323764 114.565399 14.060446 7.047326 8.181715 7.260761 -26.765703 -0.000001 -0.000001 0.000000 0.000000 0.000002 0.000003 -102.005330 -35.528807 13.573125 137.635661 -21.897061 4.038769 46.026579 9.484086 -12.337459 -0.000001 -0.000000 0.000000 0.000004 0.000000 -0.000000 4.419146 -11.712697 9.823318 5.380096 -2.787423 -0.788395 7.475346 -2.621905 -0.393227 1.842027 -0.402530 -1.007620 1.842011 -0.402531 -1.007644 0.000001 -0.000001 -0.000000 1.842034 -0.402537 -1.007619 1.842073 -0.402492 -1.007651 0.000000 -0.000001 0.000001 0.000001 -0.000001 -0.000002 -3.070380 -45.427260 3.169938 -64.749968 -52.494392 -60.333479 -0.000025 -56.233613 -0.000027 31.497148 23.603196 45.112846 -5.404467 -5.534893 24.668514 7.416516 13.559447 3.779023 0.000002 -0.000001 -0.000003 0.366118 -4.238230 1.052566 0.034125 0.632108 -6.180520 0.000000 -0.000001 0.000001 0.088943 -1.422495 0.188385 0.090523 1.026969 -10.074395 0.000000 -0.000000 0.000000 0.137702 3.731626 -3.489185 0.008750 0.320424 -3.128402 0.000000 -0.000001 -0.000000 0.799481 13.961599 -3.529112 0.007629 0.299212 -2.921095 0.000000 -0.000005 -0.000000 0.000001 0.000001 0.000001 0.000001 0.000001 0.000001 0.000000 0.000001 0.000001 0.000001 0.000001 -0.000000 0.000002 0.000001 0.000000 0.000001 0.000001 -0.000000 0.000000 0.000002 -0.000000 0.078171 22.496635 0.100550 -57.290852 -54.049869 -6.597755 0.000024 136.269405 -0.000012 37.033112 -28.079379 -18.465655 1.571340 3.499923 -7.678631 7.802578 -15.416792 -4.481852 -0.000000 -0.000000 -0.000000 0.391990 3.398975 -2.717097 0.541429 -2.181312 27.876823 0.000000 -0.000000 0.000000 -0.122073 1.242360 2.832482 0.156482 -1.198316 14.878817 -0.000001 -0.000001 -0.000001 0.091328 -3.830788 1.615350 0.021555 -0.448116 5.509517 -0.000001 0.000002 -0.000000 -0.361761 -6.598010 -0.741501 -0.000002 -0.000010 -0.000002 -0.000000 -0.000000 0.000001 0.000000 0.000001 -0.000000 0.000000 -0.000000 0.000004 0.000000 0.000001 0.000002 0.000001 0.000003 0.000001 0.000001 0.000003 -0.000000 0.000001 0.000003 0.000001 0.000001 0.000003 0.000001 0.000001 -0.000000 0.000002 0.000001 -0.000000 0.000002 0.000001 -0.000000 0.000002 0.000001 -0.000000 0.000002 0.000001 -0.000000 0.000002 0.000001 -0.000000 0.000002 0.000001 -0.000000 0.000002 0.000001 0.000002 -0.000001 -0.000000 0.000000 0.000000 
8.016487 18.725166 9.088383 15.394177 -4.463167 61.559832 0.000000 0.000001 -0.000000 -75.362620 0.892353 12.354088 114.543686 14.063611 7.055757 8.171064 7.262901 -26.753368 -0.000000 -0.000000 -0.000000 -0.000000 0.000000 0.000002 -101.955716 -35.508770 13.627418 137.601128 -21.882657 4.042659 46.012170 9.512502 -12.331323 -0.000001 -0.000000 0.000000 0.000001 0.000002 -0.000000 4.336579 -11.684229 9.741542 5.395519 -2.790391 -0.776590 7.490763 -2.625629 -0.378913 1.849554 -0.399356 -1.008985 1.849549 -0.399354 -1.008966 -0.000001 0.000001 -0.000000 1.849531 -0.399294 -1.008984 1.849571 -0.399393 -1.008959 -0.000000 -0.000002 0.000001 -0.000001 0.000001 -0.000000 -3.057306 -45.570561 3.209284 -64.634244 -52.469961 -60.252193 -0.000025 -56.093936 -0.000034 31.500423 23.574955 45.164428 -5.404467 -5.534895 24.668511 7.416513 13.559446 3.779022 0.000002 -0.000001 -0.000004 0.366119 -4.238228 1.052566 0.034125 0.632109 -6.180520 0.000000 -0.000001 0.000001 0.088944 -1.422493 0.188386 0.090524 1.026969 -10.074394 -0.000000 -0.000000 0.000001 0.137702 3.731627 -3.489184 0.008749 0.320422 -3.128402 -0.000000 0.000001 -0.000001 0.799483 13.961600 -3.529112 0.007629 0.299212 -2.921095 -0.000000 0.000000 0.000000 0.000000 0.000001 0.000001 0.000000 0.000001 0.000001 -0.000001 0.000001 0.000001 0.000004 -0.000001 -0.000000 0.000005 -0.000001 0.000000 0.000004 -0.000001 -0.000000 0.000003 0.000000 -0.000000 0.061976 22.874157 0.250336 -58.020401 -54.286641 -7.449959 0.000026 136.154576 -0.000006 36.856643 -27.845204 -18.559552 1.571337 3.499925 -7.678632 7.802580 -15.416787 -4.481851 0.000000 0.000000 -0.000000 0.391987 3.398974 -2.717097 0.541430 -2.181315 27.876821 -0.000002 -0.000000 0.000000 -0.122074 1.242360 2.832484 0.156478 -1.198312 14.878816 0.000001 0.000002 0.000002 0.091326 -3.830786 1.615352 0.021557 -0.448118 5.509519 -0.000000 0.000001 -0.000002 -0.361762 -6.598010 -0.741502 -0.000003 -0.000009 -0.000002 -0.000001 0.000003 0.000001 -0.000001 -0.000001 0.000001 0.000001 -0.000001 0.000001 -0.000001 -0.000001 -0.000001 0.000001 -0.000003 -0.000003 0.000001 -0.000003 -0.000005 0.000001 -0.000003 -0.000003 0.000001 -0.000003 -0.000004 0.000001 -0.000003 -0.000000 0.000001 -0.000003 -0.000000 0.000001 -0.000003 -0.000000 0.000001 -0.000003 -0.000000 0.000001 -0.000003 -0.000000 0.000001 -0.000003 -0.000000 0.000001 -0.000003 -0.000000 0.000000 0.000000 -0.000000 0.000000 0.000001 -0.000000 
